<!DOCTYPE svg PUBLIC "-//W3C//DTD SVG 20010904//EN" "http://www.w3.org/TR/2001/REC-SVG-20010904/DTD/svg10.dtd">
<svg version="1.0" xmlns="http://www.w3.org/2000/svg" width="216px" height="203px" viewBox="0 0 2160 2030" preserveAspectRatio="xMidYMid meet">
<g id="layer1" fill="#ffffff" stroke="none">
 <path d="M0 1015 l0 -1015 1080 0 1080 0 0 1015 0 1015 -1080 0 -1080 0 0 -1015z m1273 979 c82 -18 193 -67 286 -127 52 -33 60 -42 45 -48 -66 -25 -153 -219 -141 -312 3 -23 3 -77 0 -119 l-6 -78 -33 29 c-37 33 -105 46 -202 39 -46 -3 -68 -11 -105 -38 -28 -20 -59 -33 -77 -33 -18 0 -49 13 -77 33 -37 27 -59 35 -105 38 -97 7 -165 -6 -202 -39 l-33 -29 -6 78 c-3 42 -3 96 0 119 12 93 -75 287 -141 312 -15 6 -7 15 45 48 131 84 264 132 404 147 74 8 275 -4 348 -20z m-840 -204 c-3 -10 5 -35 17 -54 11 -20 26 -50 31 -68 13 -42 12 -319 -1 -332 -13 -13 -13 -59 1 -89 20 -43 46 -51 189 -55 121 -4 141 -7 189 -30 79 -39 100 -96 61 -172 -23 -46 -174 -200 -231 -235 -62 -40 -86 -34 -185 45 -91 72 -128 90 -146 72 -21 -21 6 -53 110 -136 91 -73 113 -86 144 -86 37 0 134 33 263 88 89 39 103 31 80 -46 -9 -29 -17 -71 -18 -94 -1 -40 -3 -41 -62 -68 -103 -48 -416 -180 -425 -180 -10 0 -20 -26 -13 -34 13 -13 44 -3 267 85 132 52 232 86 234 80 2 -6 15 -34 30 -63 27 -52 28 -53 72 -53 44 0 45 1 72 53 15 29 28 57 30 63 2 6 102 -28 234 -80 223 -88 254 -98 267 -85 7 8 -3 34 -13 34 -9 0 -322 132 -425 180 -59 27 -61 28 -62 68 -1 23 -9 65 -18 94 -23 77 -9 85 80 46 129 -55 226 -88 263 -88 31 0 53 13 144 86 104 83 131 115 110 136 -18 18 -55 0 -146 -72 -99 -79 -123 -85 -185 -45 -57 35 -208 189 -231 235 -39 76 -18 133 61 172 48 23 68 26 189 30 143 4 169 12 189 55 14 30 14 76 1 89 -13 13 -14 290 -1 332 5 18 20 48 31 68 14 21 20 43 17 57 -9 34 146 -131 198 -212 58 -89 95 -174 125 -281 21 -72 24 -108 24 -240 1 -174 -11 -236 -72 -380 -66 -158 -183 -306 -326 -410 -80 -58 -229 -126 -334 -152 -122 -30 -322 -30 -444 0 -294 72 -543 284 -660 562 -61 144 -73 206 -72 380 0 132 3 168 24 240 47 170 121 299 246 430 42 44 78 80 79 80 2 0 1 -9 -2 -20z"/>
 </g>
<g id="layer2" fill="#000000" stroke="none">
 <path d="M925 2014 c-140 -15 -273 -63 -404 -147 -52 -33 -60 -42 -45 -48 66 -25 153 -219 141 -312 -3 -23 -3 -77 0 -119 l6 -78 33 29 c37 33 105 46 202 39 46 -3 68 -11 105 -38 28 -20 59 -33 77 -33 18 0 49 13 77 33 37 27 59 35 105 38 97 7 165 -6 202 -39 l33 -29 6 78 c3 42 3 96 0 119 -12 93 75 287 141 312 42 16 -207 147 -331 175 -73 16 -274 28 -348 20z"/>
 <path d="M356 1730 c-125 -131 -199 -260 -246 -430 -21 -72 -24 -108 -24 -240 -1 -174 11 -236 72 -380 66 -158 183 -306 326 -410 80 -58 229 -126 334 -152 122 -30 322 -30 444 0 294 72 543 284 660 562 61 144 73 206 72 380 0 132 -3 168 -24 240 -30 107 -67 192 -125 281 -52 81 -207 246 -198 212 3 -14 -3 -36 -17 -57 -11 -20 -26 -50 -31 -68 -13 -42 -12 -319 1 -332 13 -13 13 -59 -1 -89 -20 -43 -46 -51 -189 -55 -121 -4 -141 -7 -189 -30 -79 -39 -100 -96 -61 -172 23 -46 174 -200 231 -235 62 -40 86 -34 185 45 91 72 128 90 146 72 21 -21 -6 -53 -110 -136 -91 -73 -113 -86 -144 -86 -37 0 -134 33 -263 88 -89 39 -103 31 -80 -46 9 -29 17 -71 18 -94 1 -40 3 -41 62 -68 103 -48 416 -180 425 -180 10 0 20 -26 13 -34 -13 -13 -44 -3 -267 85 -132 52 -232 86 -234 80 -2 -6 -15 -34 -30 -63 -27 -52 -28 -53 -72 -53 -44 0 -45 1 -72 53 -15 29 -28 57 -30 63 -2 6 -102 -28 -234 -80 -223 -88 -254 -98 -267 -85 -7 8 3 34 13 34 9 0 322 132 425 180 59 27 61 28 62 68 1 23 9 65 18 94 23 77 9 85 -80 46 -129 -55 -226 -88 -263 -88 -31 0 -53 13 -144 86 -104 83 -131 115 -110 136 18 18 55 0 146 -72 99 -79 123 -85 185 -45 57 35 208 189 231 235 39 76 18 133 -61 172 -48 23 -68 26 -189 30 -143 4 -169 12 -189 55 -14 30 -14 76 -1 89 13 13 14 290 1 332 -5 18 -20 48 -31 68 -12 19 -20 44 -17 54 3 11 4 20 2 20 -1 0 -37 -36 -79 -80z"/>
 </g>

</svg>